<svg width="42" height="40" viewBox="0 0 42 40" fill="none" xmlns="http://www.w3.org/2000/svg">
<path d="M31.5854 40H10.4147C7.10096 40 4.41467 37.3137 4.41467 34V19.4264C4.41467 17.7157 5.14495 16.0863 6.42192 14.9478L17.0073 5.51078C19.2826 3.48226 22.7174 3.48225 24.9928 5.51078L35.5782 14.9478C36.8551 16.0863 37.5854 17.7157 37.5854 19.4264V34C37.5854 37.3137 34.8991 40 31.5854 40Z" fill="#805DEB"/>
<path d="M17.0976 19.5122C17.0976 17.3569 18.8447 15.6098 21 15.6098C23.1553 15.6098 24.9024 17.3569 24.9024 19.5122V25.3659C24.9024 27.5211 23.1553 29.2683 21 29.2683C18.8447 29.2683 17.0976 27.5211 17.0976 25.3659V19.5122Z" fill="#1C2029"/>
<path fill-rule="evenodd" clip-rule="evenodd" d="M16.1219 19.5122C16.1219 16.8181 18.3059 14.6342 21 14.6342C23.6941 14.6342 25.878 16.8181 25.878 19.5122V25.3659C25.878 28.0599 23.6941 30.2439 21 30.2439C18.3059 30.2439 16.1219 28.0599 16.1219 25.3659V19.5122ZM21 16.5854C19.3836 16.5854 18.0732 17.8958 18.0732 19.5122V25.3659C18.0732 26.9823 19.3836 28.2927 21 28.2927C22.6164 28.2927 23.9268 26.9823 23.9268 25.3659V19.5122C23.9268 17.8958 22.6164 16.5854 21 16.5854Z" fill="#1E1E1E"/>
<path fill-rule="evenodd" clip-rule="evenodd" d="M13.1951 23.1708C13.8686 23.1708 14.4146 23.7168 14.4146 24.3903V25.3659C14.4146 29.0029 17.363 31.9513 21 31.9513C24.637 31.9513 27.5853 29.0029 27.5853 25.3659V24.3903C27.5853 23.7168 28.1313 23.1708 28.8049 23.1708C29.4784 23.1708 30.0244 23.7168 30.0244 24.3903V25.3659C30.0244 30.3499 25.984 34.3903 21 34.3903C16.0159 34.3903 11.9756 30.3499 11.9756 25.3659V24.3903C11.9756 23.7168 12.5216 23.1708 13.1951 23.1708Z" fill="#1C2029"/>
<path d="M19.6049 4.81687L3.05726 20.5072C2.51789 21.0186 1.65453 20.9511 1.2012 20.3621C0.809634 19.8533 0.865738 19.1309 1.33116 18.6887L18.2448 2.61795C19.7887 1.15096 22.2113 1.15096 23.7553 2.61795L40.4176 18.4499C41.0019 19.0051 41.0078 19.9346 40.4305 20.4972C39.8789 21.0348 38.9992 21.0348 38.4475 20.4972L22.3769 4.83584C21.6078 4.08637 20.3842 4.07799 19.6049 4.81687Z" fill="#5C3CBF"/>
</svg>
