<svg xmlns="http://www.w3.org/2000/svg">
    <defs>
        <symbol id="mic" viewBox="0 0 20 20" fill="none">
            <path d="M10 13.4375C11.0771 13.4363 12.1097 13.0078 12.8713 12.2463C13.6328 11.4847 14.0613 10.4521 14.0625 9.375V5C14.0625 3.92256 13.6345 2.88925 12.8726 2.12738C12.1108 1.36551 11.0774 0.9375 10 0.9375C8.92256 0.9375 7.88925 1.36551 7.12738 2.12738C6.36551 2.88925 5.9375 3.92256 5.9375 5V9.375C5.93874 10.4521 6.36715 11.4847 7.12875 12.2463C7.89035 13.0078 8.92294 13.4363 10 13.4375ZM7.8125 5C7.8125 4.41984 8.04297 3.86344 8.4532 3.4532C8.86344 3.04297 9.41984 2.8125 10 2.8125C10.5802 2.8125 11.1366 3.04297 11.5468 3.4532C11.957 3.86344 12.1875 4.41984 12.1875 5V9.375C12.1875 9.95516 11.957 10.5116 11.5468 10.9218C11.1366 11.332 10.5802 11.5625 10 11.5625C9.41984 11.5625 8.86344 11.332 8.4532 10.9218C8.04297 10.5116 7.8125 9.95516 7.8125 9.375V5ZM10.9375 16.5016V18.125C10.9375 18.3736 10.8387 18.6121 10.6629 18.7879C10.4871 18.9637 10.2486 19.0625 10 19.0625C9.75136 19.0625 9.5129 18.9637 9.33709 18.7879C9.16127 18.6121 9.0625 18.3736 9.0625 18.125V16.5016C7.3344 16.2719 5.74838 15.4229 4.59892 14.1122C3.44947 12.8016 2.81471 11.1183 2.8125 9.375C2.8125 9.12636 2.91127 8.8879 3.08709 8.71209C3.2629 8.53627 3.50136 8.4375 3.75 8.4375C3.99864 8.4375 4.2371 8.53627 4.41291 8.71209C4.58873 8.8879 4.6875 9.12636 4.6875 9.375C4.6875 10.784 5.24721 12.1352 6.2435 13.1315C7.23978 14.1278 8.59104 14.6875 10 14.6875C11.409 14.6875 12.7602 14.1278 13.7565 13.1315C14.7528 12.1352 15.3125 10.784 15.3125 9.375C15.3125 9.12636 15.4113 8.8879 15.5871 8.71209C15.7629 8.53627 16.0014 8.4375 16.25 8.4375C16.4986 8.4375 16.7371 8.53627 16.9129 8.71209C17.0887 8.8879 17.1875 9.12636 17.1875 9.375C17.1853 11.1183 16.5505 12.8016 15.4011 14.1122C14.2516 15.4229 12.6656 16.2719 10.9375 16.5016Z" fill="currentColor"/>
        </symbol>
        <symbol id="mic-off" viewBox="0 0 24 30" fill="none">
            <path d="M3.10989 2.99125C2.97816 2.84276 2.81827 2.72189 2.63949 2.63565C2.46071 2.54942 2.26658 2.49952 2.06837 2.48885C1.87016 2.47819 1.67181 2.50697 1.48481 2.57353C1.2978 2.6401 1.12587 2.74311 0.978971 2.87661C0.832073 3.01011 0.713132 3.17143 0.629043 3.35124C0.544953 3.53104 0.497387 3.72575 0.489101 3.92407C0.480814 4.1224 0.511973 4.32039 0.580772 4.50658C0.64957 4.69278 0.754638 4.86346 0.889888 5.00875L5.49989 10.08V14C5.49894 15.0718 5.76306 16.1273 6.26872 17.0723C6.77439 18.0174 7.50591 18.8227 8.39814 19.4166C9.29038 20.0105 10.3156 20.3746 11.3826 20.4764C12.4496 20.5782 13.5252 20.4145 14.5136 20L15.9211 21.5487C14.7105 22.1791 13.3648 22.5055 11.9999 22.5C9.74626 22.4977 7.5856 21.6014 5.99204 20.0078C4.39848 18.4143 3.5022 16.2536 3.49989 14C3.49989 13.6022 3.34185 13.2206 3.06055 12.9393C2.77924 12.658 2.39771 12.5 1.99989 12.5C1.60206 12.5 1.22053 12.658 0.939228 12.9393C0.657924 13.2206 0.499888 13.6022 0.499888 14C0.503423 16.7893 1.51905 19.4825 3.35817 21.5795C5.19729 23.6766 7.73494 25.035 10.4999 25.4025V28C10.4999 28.3978 10.6579 28.7794 10.9392 29.0607C11.2205 29.342 11.6021 29.5 11.9999 29.5C12.3977 29.5 12.7792 29.342 13.0605 29.0607C13.3419 28.7794 13.4999 28.3978 13.4999 28V25.4037C15.0922 25.2004 16.6228 24.66 17.9899 23.8187L20.8899 27.0087C21.1588 27.2977 21.5308 27.4689 21.9252 27.4854C22.3195 27.5019 22.7045 27.3622 22.9966 27.0968C23.2887 26.8313 23.4644 26.4614 23.4856 26.0673C23.5068 25.6731 23.3718 25.2865 23.1099 24.9912L3.10989 2.99125ZM11.9999 17.5C11.0716 17.5 10.1814 17.1313 9.52501 16.4749C8.86864 15.8185 8.49989 14.9283 8.49989 14V13.375L12.2374 17.4862C12.1586 17.5 12.0799 17.5 11.9999 17.5ZM7.33364 4.65875C7.18979 4.52338 7.0741 4.36094 6.9932 4.18075C6.9123 4.00055 6.86778 3.80616 6.86221 3.60871C6.85663 3.41127 6.89011 3.21467 6.96071 3.0302C7.03132 2.84572 7.13766 2.67701 7.27364 2.53375C8.16735 1.58718 9.3247 0.930779 10.5958 0.649565C11.8668 0.368351 13.1931 0.475282 14.4027 0.956509C15.6123 1.43774 16.6495 2.27108 17.38 3.34861C18.1105 4.42614 18.5007 5.69819 18.4999 7V13.0675C18.4999 13.4653 18.3419 13.8469 18.0605 14.1282C17.7792 14.4095 17.3977 14.5675 16.9999 14.5675C16.6021 14.5675 16.2205 14.4095 15.9392 14.1282C15.6579 13.8469 15.4999 13.4653 15.4999 13.0675V7C15.4998 6.29921 15.2894 5.61457 14.8959 5.03471C14.5024 4.45486 13.9438 4.00649 13.2926 3.74766C12.6413 3.48884 11.9274 3.43147 11.2432 3.58298C10.5589 3.7345 9.93597 4.08792 9.45489 4.5975C9.31967 4.74087 9.15752 4.85619 8.97771 4.93687C8.7979 5.01755 8.60395 5.062 8.40696 5.06769C8.20996 5.07337 8.01377 5.04019 7.82961 4.97002C7.64544 4.89985 7.47691 4.79408 7.33364 4.65875ZM19.8749 17.1975C20.2886 16.1823 20.5009 15.0963 20.4999 14C20.4999 13.6022 20.6579 13.2206 20.9392 12.9393C21.2205 12.658 21.6021 12.5 21.9999 12.5C22.3977 12.5 22.7792 12.658 23.0605 12.9393C23.3419 13.2206 23.4999 13.6022 23.4999 14C23.5023 15.4831 23.2161 16.9524 22.6574 18.3262C22.4983 18.6801 22.2082 18.9585 21.8482 19.1031C21.4881 19.2476 21.0861 19.247 20.7264 19.1014C20.3668 18.9558 20.0776 18.6766 19.9195 18.3222C19.7614 17.9679 19.7468 17.5661 19.8786 17.2012L19.8749 17.1975Z" fill="currentColor"/>
        </symbol>
        <symbol id="chevron" viewBox="0 0 16 16" fill="none">
            <path d="M10.5307 12.4693C10.6715 12.6102 10.7507 12.8013 10.7507 13.0006C10.7507 13.1998 10.6715 13.3909 10.5307 13.5318C10.3898 13.6727 10.1987 13.7519 9.9994 13.7519C9.80014 13.7519 9.60905 13.6727 9.46815 13.5318L4.46815 8.53182C4.39823 8.46214 4.34275 8.37935 4.3049 8.28818C4.26704 8.19702 4.24756 8.09928 4.24756 8.00057C4.24756 7.90186 4.26704 7.80412 4.3049 7.71295C4.34275 7.62179 4.39823 7.539 4.46815 7.46932L9.46815 2.46932C9.60905 2.32842 9.80014 2.24927 9.9994 2.24927C10.1987 2.24927 10.3898 2.32842 10.5307 2.46932C10.6715 2.61021 10.7507 2.80131 10.7507 3.00057C10.7507 3.19983 10.6715 3.39092 10.5307 3.53182L6.06252 7.99994L10.5307 12.4693Z" fill="currentColor"/>
        </symbol>
        <symbol id="people" viewBox="0 0 20 14" fill="none">
            <path d="M9.77935 9.26097C10.5646 8.60097 11.1278 7.71545 11.3926 6.72449C11.6575 5.73354 11.6111 4.68511 11.2599 3.72138C10.9087 2.75765 10.2695 1.92526 9.42918 1.3371C8.58882 0.748943 7.5879 0.433472 6.56217 0.433472C5.53643 0.433472 4.53551 0.748943 3.69515 1.3371C2.85479 1.92526 2.21566 2.75765 1.86443 3.72138C1.5132 4.68511 1.46686 5.73354 1.73171 6.72449C1.99656 7.71545 2.55978 8.60097 3.34498 9.26097C2.11887 9.81537 1.05632 10.6764 0.25982 11.761C0.112708 11.9614 0.0512562 12.2121 0.0889832 12.4579C0.12671 12.7037 0.260526 12.9244 0.460992 13.0715C0.661459 13.2186 0.912155 13.2801 1.15793 13.2423C1.40371 13.2046 1.62443 13.0708 1.77154 12.8703C2.3229 12.1173 3.04401 11.5049 3.87636 11.0827C4.70872 10.6605 5.62887 10.4405 6.56217 10.4405C7.49546 10.4405 8.41561 10.6605 9.24797 11.0827C10.0803 11.5049 10.8014 12.1173 11.3528 12.8703C11.4999 13.0709 11.7207 13.2048 11.9665 13.2426C12.2124 13.2804 12.4632 13.219 12.6637 13.0719C12.8643 12.9248 12.9982 12.704 13.036 12.4582C13.0738 12.2123 13.0124 11.9615 12.8653 11.761C12.0683 10.6765 11.0056 9.81556 9.77935 9.26097ZM3.43716 5.43753C3.43716 4.81946 3.62044 4.21527 3.96382 3.70137C4.3072 3.18747 4.79526 2.78693 5.36628 2.5504C5.9373 2.31388 6.56563 2.25199 7.17182 2.37257C7.77801 2.49315 8.33484 2.79078 8.77187 3.22782C9.20891 3.66486 9.50654 4.22168 9.62712 4.82787C9.7477 5.43406 9.68581 6.06239 9.44929 6.63341C9.21277 7.20443 8.81223 7.69249 8.29832 8.03587C7.78442 8.37925 7.18023 8.56253 6.56217 8.56253C5.73336 8.56253 4.93851 8.23329 4.35246 7.64724C3.7664 7.06118 3.43716 6.26633 3.43716 5.43753ZM19.5387 13.068C19.4395 13.1409 19.3268 13.1936 19.2072 13.223C19.0876 13.2523 18.9634 13.2579 18.8417 13.2392C18.7199 13.2206 18.603 13.1781 18.4977 13.1143C18.3924 13.0505 18.3007 12.9665 18.2278 12.8672C17.6751 12.1156 16.9537 11.5043 16.1216 11.0823C15.2896 10.6603 14.3701 10.4394 13.4372 10.4375C13.1885 10.4375 12.9501 10.3388 12.7743 10.1629C12.5984 9.98712 12.4997 9.74867 12.4997 9.50003C12.4997 9.25139 12.5984 9.01293 12.7743 8.83712C12.9501 8.6613 13.1885 8.56253 13.4372 8.56253C13.8973 8.56199 14.3516 8.45985 14.7677 8.2634C15.1838 8.06695 15.5514 7.78104 15.8442 7.4261C16.1369 7.07115 16.3478 6.65593 16.4615 6.21008C16.5753 5.76424 16.5891 5.29877 16.5022 4.84694C16.4152 4.3951 16.2296 3.96805 15.9585 3.59627C15.6873 3.2245 15.3375 2.91718 14.9339 2.69626C14.5302 2.47535 14.0828 2.34629 13.6235 2.31831C13.1643 2.29033 12.7045 2.36412 12.277 2.5344C12.1625 2.58129 12.0399 2.60504 11.9161 2.6043C11.7924 2.60355 11.67 2.57832 11.5561 2.53006C11.4422 2.4818 11.3389 2.41147 11.2523 2.32311C11.1657 2.23476 11.0974 2.13013 11.0514 2.01526C11.0054 1.90039 10.9826 1.77756 10.9844 1.65384C10.9861 1.53012 11.0123 1.40797 11.0614 1.29442C11.1106 1.18086 11.1817 1.07817 11.2707 0.992242C11.3598 0.906317 11.4649 0.838866 11.5801 0.793778C12.6835 0.352015 13.9082 0.31774 15.0345 0.697097C16.1609 1.07645 17.1152 1.84463 17.7265 2.8639C18.3378 3.88316 18.5661 5.08685 18.3703 6.25913C18.1745 7.43142 17.5676 8.49564 16.6583 9.26097C17.8844 9.81537 18.9469 10.6764 19.7434 11.761C19.8891 11.9616 19.9493 12.2118 19.9109 12.4567C19.8726 12.7017 19.7387 12.9215 19.5387 13.068Z" fill="currentColor"/>
        </symbol>
        <symbol id="zap" viewBox="0 0 24 24" fill="none">
            <rect x="2" y="2" width="20" height="20" rx="10" fill="white"/>
            <path fill-rule="evenodd" clip-rule="evenodd" d="M12 1C5.92487 1 1 5.92487 1 12C1 18.0751 5.92487 23 12 23C18.0751 23 23 18.0751 23 12C23 5.92487 18.0751 1 12 1ZM7.36156 12.2468L12 5.5V10.5H15.9791C16.472 10.5 16.7185 10.5 16.8528 10.6025C16.9698 10.6918 17.0415 10.8282 17.0488 10.9752C17.0572 11.144 16.9176 11.3471 16.6384 11.7532L12 18.5V13.5H8.02079C7.52792 13.5 7.28148 13.5 7.14713 13.3975C7.03012 13.3082 6.9584 13.1718 6.9511 13.0248C6.94272 12.856 7.08233 12.6529 7.36156 12.2468Z" fill="currentColor"/>
        </symbol>
        <symbol id="exit" viewBox="0 0 26 26" fill="none">
            <path d="M14.5 24C14.5 24.3978 14.658 24.7794 14.9393 25.0607C15.2206 25.342 15.6022 25.5 16 25.5H23C23.663 25.5 24.2989 25.2366 24.7678 24.7678C25.2366 24.2989 25.5 23.663 25.5 23V3C25.5 2.33696 25.2366 1.70107 24.7678 1.23223C24.2989 0.763392 23.663 0.5 23 0.5H16C15.6022 0.5 15.2206 0.658035 14.9393 0.93934C14.658 1.22064 14.5 1.60218 14.5 2C14.5 2.39782 14.658 2.77936 14.9393 3.06066C15.2206 3.34196 15.6022 3.5 16 3.5H22.5V22.5H16C15.6022 22.5 15.2206 22.658 14.9393 22.9393C14.658 23.2206 14.5 23.6022 14.5 24ZM0.938749 11.9388L5.93875 6.93875C6.22054 6.65696 6.60273 6.49865 7.00125 6.49865C7.39977 6.49865 7.78196 6.65696 8.06375 6.93875C8.34554 7.22054 8.50385 7.60274 8.50385 8.00125C8.50385 8.39977 8.34554 8.78196 8.06375 9.06375L5.625 11.5H16C16.3978 11.5 16.7794 11.658 17.0607 11.9393C17.342 12.2206 17.5 12.6022 17.5 13C17.5 13.3978 17.342 13.7794 17.0607 14.0607C16.7794 14.342 16.3978 14.5 16 14.5H5.625L8.065 16.9387C8.34679 17.2205 8.5051 17.6027 8.5051 18.0012C8.5051 18.3998 8.34679 18.782 8.065 19.0637C7.78321 19.3455 7.40102 19.5039 7.0025 19.5039C6.60398 19.5039 6.22179 19.3455 5.94 19.0637L0.940001 14.0637C0.800079 13.9245 0.689026 13.759 0.613211 13.5767C0.537395 13.3944 0.498308 13.1989 0.498192 13.0015C0.498075 12.8041 0.536932 12.6086 0.612534 12.4262C0.688135 12.2438 0.798992 12.0782 0.938749 11.9388Z" fill="currentColor"/>
        </symbol>
        <symbol id="hand" viewBox="0 0 24 30" fill="none">
            <path d="M19.5 9.49996C19.1627 9.4993 18.8267 9.5413 18.5 9.62496V6.49996C18.5006 5.85364 18.3445 5.2168 18.0452 4.64397C17.7458 4.07114 17.3121 3.57937 16.7812 3.21077C16.2503 2.84216 15.638 2.6077 14.9967 2.52745C14.3553 2.4472 13.7041 2.52355 13.0988 2.74996C12.7035 1.9353 12.0435 1.27886 11.2267 0.887983C10.4099 0.497104 9.48469 0.394917 8.60229 0.598133C7.7199 0.80135 6.93256 1.29794 6.36903 2.00671C5.8055 2.71547 5.49913 3.59447 5.5 4.49996V4.62496C4.90875 4.4723 4.2904 4.45704 3.69233 4.58034C3.09427 4.70363 2.53237 4.96222 2.04971 5.33629C1.56705 5.71035 1.17644 6.18995 0.907819 6.73833C0.639196 7.28672 0.499693 7.88932 0.500001 8.49996V18C0.500001 21.05 1.7116 23.975 3.86827 26.1317C6.02494 28.2884 8.95001 29.5 12 29.5C15.05 29.5 17.9751 28.2884 20.1317 26.1317C22.2884 23.975 23.5 21.05 23.5 18V13.5C23.5 12.4391 23.0786 11.4217 22.3284 10.6715C21.5783 9.92139 20.5609 9.49996 19.5 9.49996ZM20.5 18C20.5 20.2543 19.6045 22.4163 18.0104 24.0104C16.4163 25.6044 14.2543 26.5 12 26.5C9.74566 26.5 7.58365 25.6044 5.98959 24.0104C4.39553 22.4163 3.5 20.2543 3.5 18V8.49996C3.5 8.23475 3.60536 7.98039 3.79289 7.79286C3.98043 7.60532 4.23478 7.49996 4.5 7.49996C4.76522 7.49996 5.01957 7.60532 5.20711 7.79286C5.39464 7.98039 5.5 8.23475 5.5 8.49996V14C5.5 14.3978 5.65804 14.7793 5.93934 15.0606C6.22064 15.3419 6.60218 15.5 7 15.5C7.39783 15.5 7.77936 15.3419 8.06066 15.0606C8.34197 14.7793 8.5 14.3978 8.5 14V4.49996C8.5 4.23475 8.60536 3.98039 8.79289 3.79286C8.98043 3.60532 9.23478 3.49996 9.5 3.49996C9.76522 3.49996 10.0196 3.60532 10.2071 3.79286C10.3946 3.98039 10.5 4.23475 10.5 4.49996V13C10.5 13.3978 10.658 13.7793 10.9393 14.0606C11.2206 14.3419 11.6022 14.5 12 14.5C12.3978 14.5 12.7794 14.3419 13.0607 14.0606C13.342 13.7793 13.5 13.3978 13.5 13V6.49996C13.5 6.23475 13.6054 5.98039 13.7929 5.79286C13.9804 5.60532 14.2348 5.49996 14.5 5.49996C14.7652 5.49996 15.0196 5.60532 15.2071 5.79286C15.3946 5.98039 15.5 6.23475 15.5 6.49996V14.675C14.0773 15.0144 12.8103 15.823 11.9033 16.9705C10.9962 18.1179 10.5019 19.5373 10.5 21C10.5 21.3978 10.658 21.7793 10.9393 22.0606C11.2206 22.3419 11.6022 22.5 12 22.5C12.3978 22.5 12.7794 22.3419 13.0607 22.0606C13.342 21.7793 13.5 21.3978 13.5 21C13.5 20.0717 13.8687 19.1815 14.5251 18.5251C15.1815 17.8687 16.0717 17.5 17 17.5C17.3978 17.5 17.7794 17.3419 18.0607 17.0606C18.342 16.7793 18.5 16.3978 18.5 16V13.5C18.5 13.2347 18.6054 12.9804 18.7929 12.7929C18.9804 12.6053 19.2348 12.5 19.5 12.5C19.7652 12.5 20.0196 12.6053 20.2071 12.7929C20.3946 12.9804 20.5 13.2347 20.5 13.5V18Z" fill="currentColor"/>
        </symbol>
        <symbol id="smile" viewBox="0 0 28 28" fill="none">
            <path d="M20.2988 17.75C18.9238 20.1325 16.625 21.5 14 21.5C11.375 21.5 9.08001 20.1338 7.70126 17.75C7.51092 17.4061 7.4632 17.0012 7.56836 16.6224C7.67352 16.2436 7.92316 15.9213 8.26356 15.7247C8.60397 15.5281 9.00793 15.4731 9.38855 15.5713C9.76916 15.6695 10.096 15.9132 10.2988 16.25C10.785 17.0912 11.9125 18.5 14 18.5C16.0875 18.5 17.215 17.09 17.7013 16.25C17.7978 16.0756 17.928 15.9222 18.0845 15.7988C18.2409 15.6753 18.4204 15.5843 18.6124 15.531C18.8044 15.4777 19.0051 15.4632 19.2028 15.4883C19.4005 15.5134 19.5912 15.5777 19.7638 15.6773C19.9364 15.777 20.0874 15.9101 20.208 16.0687C20.3285 16.2274 20.4163 16.4085 20.4661 16.6014C20.5159 16.7944 20.5267 16.9954 20.498 17.1926C20.4693 17.3898 20.4015 17.5793 20.2988 17.75ZM27.5 14C27.5 16.67 26.7082 19.2801 25.2248 21.5002C23.7414 23.7203 21.633 25.4506 19.1662 26.4724C16.6994 27.4942 13.985 27.7615 11.3663 27.2406C8.74754 26.7197 6.34207 25.434 4.45406 23.5459C2.56606 21.6579 1.28031 19.2525 0.759405 16.6337C0.238504 14.015 0.505849 11.3006 1.52763 8.83377C2.54942 6.36697 4.27974 4.25856 6.49981 2.77516C8.71987 1.29176 11.33 0.5 14 0.5C17.5792 0.50397 21.0107 1.92756 23.5416 4.45844C26.0724 6.98932 27.496 10.4208 27.5 14ZM24.5 14C24.5 11.9233 23.8842 9.89323 22.7304 8.16651C21.5767 6.4398 19.9368 5.09399 18.0182 4.29926C16.0996 3.50454 13.9884 3.29661 11.9516 3.70175C9.91476 4.1069 8.04384 5.10693 6.57538 6.57538C5.10693 8.04383 4.10691 9.91475 3.70176 11.9516C3.29662 13.9884 3.50455 16.0996 4.29927 18.0182C5.09399 19.9368 6.4398 21.5767 8.16652 22.7304C9.89324 23.8842 11.9233 24.5 14 24.5C16.7839 24.497 19.4529 23.3898 21.4213 21.4213C23.3898 19.4528 24.497 16.7839 24.5 14ZM9.50001 13.5C9.89557 13.5 10.2822 13.3827 10.6111 13.1629C10.94 12.9432 11.1964 12.6308 11.3478 12.2654C11.4991 11.8999 11.5387 11.4978 11.4616 11.1098C11.3844 10.7219 11.1939 10.3655 10.9142 10.0858C10.6345 9.80608 10.2781 9.6156 9.89019 9.53843C9.50222 9.46126 9.10009 9.50087 8.73464 9.65224C8.36919 9.80362 8.05683 10.06 7.83707 10.3889C7.6173 10.7178 7.50001 11.1044 7.50001 11.5C7.50001 12.0304 7.71072 12.5391 8.08579 12.9142C8.46087 13.2893 8.96957 13.5 9.50001 13.5ZM18.5 9.5C18.1044 9.5 17.7178 9.6173 17.3889 9.83706C17.06 10.0568 16.8036 10.3692 16.6522 10.7346C16.5009 11.1001 16.4613 11.5022 16.5384 11.8902C16.6156 12.2781 16.8061 12.6345 17.0858 12.9142C17.3655 13.1939 17.7219 13.3844 18.1098 13.4616C18.4978 13.5387 18.8999 13.4991 19.2654 13.3478C19.6308 13.1964 19.9432 12.94 20.1629 12.6111C20.3827 12.2822 20.5 11.8956 20.5 11.5C20.5 10.9696 20.2893 10.4609 19.9142 10.0858C19.5391 9.71071 19.0304 9.5 18.5 9.5Z" fill="currentColor"/>
        </symbol>
        <symbol id="dots" viewBox="0 0 22 4" fill="none">
            <path d="M13 2C13 2.39556 12.8827 2.78224 12.6629 3.11114C12.4432 3.44004 12.1308 3.69638 11.7654 3.84776C11.3999 3.99913 10.9978 4.03874 10.6098 3.96157C10.2219 3.8844 9.86549 3.69392 9.58579 3.41421C9.30608 3.13451 9.1156 2.77814 9.03843 2.39018C8.96126 2.00222 9.00087 1.60009 9.15224 1.23463C9.30362 0.869181 9.55996 0.556824 9.88886 0.337061C10.2178 0.117298 10.6044 0 11 0C11.5304 0 12.0391 0.210714 12.4142 0.585787C12.7893 0.96086 13 1.46957 13 2ZM2.5 0C2.10444 0 1.71776 0.117298 1.38886 0.337061C1.05996 0.556824 0.803617 0.869181 0.652242 1.23463C0.500867 1.60009 0.46126 2.00222 0.53843 2.39018C0.615601 2.77814 0.806082 3.13451 1.08579 3.41421C1.36549 3.69392 1.72186 3.8844 2.10982 3.96157C2.49778 4.03874 2.89992 3.99913 3.26537 3.84776C3.63082 3.69638 3.94318 3.44004 4.16294 3.11114C4.3827 2.78224 4.5 2.39556 4.5 2C4.5 1.46957 4.28929 0.96086 3.91421 0.585787C3.53914 0.210714 3.03043 0 2.5 0ZM19.5 0C19.1044 0 18.7178 0.117298 18.3889 0.337061C18.06 0.556824 17.8036 0.869181 17.6522 1.23463C17.5009 1.60009 17.4613 2.00222 17.5384 2.39018C17.6156 2.77814 17.8061 3.13451 18.0858 3.41421C18.3655 3.69392 18.7219 3.8844 19.1098 3.96157C19.4978 4.03874 19.8999 3.99913 20.2654 3.84776C20.6308 3.69638 20.9432 3.44004 21.1629 3.11114C21.3827 2.78224 21.5 2.39556 21.5 2C21.5 1.46957 21.2893 0.96086 20.9142 0.585787C20.5391 0.210714 20.0304 0 19.5 0Z" fill="currentcolor"/>
        </symbol>

    </defs>
</svg>