<svg xmlns="http://www.w3.org/2000/svg">
    <defs>
        <symbol id="mic" viewBox="0 0 20 20" fill="none">
            <path d="M10 13.4375C11.0771 13.4363 12.1097 13.0078 12.8713 12.2463C13.6328 11.4847 14.0613 10.4521 14.0625 9.375V5C14.0625 3.92256 13.6345 2.88925 12.8726 2.12738C12.1108 1.36551 11.0774 0.9375 10 0.9375C8.92256 0.9375 7.88925 1.36551 7.12738 2.12738C6.36551 2.88925 5.9375 3.92256 5.9375 5V9.375C5.93874 10.4521 6.36715 11.4847 7.12875 12.2463C7.89035 13.0078 8.92294 13.4363 10 13.4375ZM7.8125 5C7.8125 4.41984 8.04297 3.86344 8.4532 3.4532C8.86344 3.04297 9.41984 2.8125 10 2.8125C10.5802 2.8125 11.1366 3.04297 11.5468 3.4532C11.957 3.86344 12.1875 4.41984 12.1875 5V9.375C12.1875 9.95516 11.957 10.5116 11.5468 10.9218C11.1366 11.332 10.5802 11.5625 10 11.5625C9.41984 11.5625 8.86344 11.332 8.4532 10.9218C8.04297 10.5116 7.8125 9.95516 7.8125 9.375V5ZM10.9375 16.5016V18.125C10.9375 18.3736 10.8387 18.6121 10.6629 18.7879C10.4871 18.9637 10.2486 19.0625 10 19.0625C9.75136 19.0625 9.5129 18.9637 9.33709 18.7879C9.16127 18.6121 9.0625 18.3736 9.0625 18.125V16.5016C7.3344 16.2719 5.74838 15.4229 4.59892 14.1122C3.44947 12.8016 2.81471 11.1183 2.8125 9.375C2.8125 9.12636 2.91127 8.8879 3.08709 8.71209C3.2629 8.53627 3.50136 8.4375 3.75 8.4375C3.99864 8.4375 4.2371 8.53627 4.41291 8.71209C4.58873 8.8879 4.6875 9.12636 4.6875 9.375C4.6875 10.784 5.24721 12.1352 6.2435 13.1315C7.23978 14.1278 8.59104 14.6875 10 14.6875C11.409 14.6875 12.7602 14.1278 13.7565 13.1315C14.7528 12.1352 15.3125 10.784 15.3125 9.375C15.3125 9.12636 15.4113 8.8879 15.5871 8.71209C15.7629 8.53627 16.0014 8.4375 16.25 8.4375C16.4986 8.4375 16.7371 8.53627 16.9129 8.71209C17.0887 8.8879 17.1875 9.12636 17.1875 9.375C17.1853 11.1183 16.5505 12.8016 15.4011 14.1122C14.2516 15.4229 12.6656 16.2719 10.9375 16.5016Z" fill="currentColor"/>
        </symbol>
        <symbol id="mic-off" viewBox="0 0 24 30" fill="none">
            <path d="M3.10989 2.99125C2.97816 2.84276 2.81827 2.72189 2.63949 2.63565C2.46071 2.54942 2.26658 2.49952 2.06837 2.48885C1.87016 2.47819 1.67181 2.50697 1.48481 2.57353C1.2978 2.6401 1.12587 2.74311 0.978971 2.87661C0.832073 3.01011 0.713132 3.17143 0.629043 3.35124C0.544953 3.53104 0.497387 3.72575 0.489101 3.92407C0.480814 4.1224 0.511973 4.32039 0.580772 4.50658C0.64957 4.69278 0.754638 4.86346 0.889888 5.00875L5.49989 10.08V14C5.49894 15.0718 5.76306 16.1273 6.26872 17.0723C6.77439 18.0174 7.50591 18.8227 8.39814 19.4166C9.29038 20.0105 10.3156 20.3746 11.3826 20.4764C12.4496 20.5782 13.5252 20.4145 14.5136 20L15.9211 21.5487C14.7105 22.1791 13.3648 22.5055 11.9999 22.5C9.74626 22.4977 7.5856 21.6014 5.99204 20.0078C4.39848 18.4143 3.5022 16.2536 3.49989 14C3.49989 13.6022 3.34185 13.2206 3.06055 12.9393C2.77924 12.658 2.39771 12.5 1.99989 12.5C1.60206 12.5 1.22053 12.658 0.939228 12.9393C0.657924 13.2206 0.499888 13.6022 0.499888 14C0.503423 16.7893 1.51905 19.4825 3.35817 21.5795C5.19729 23.6766 7.73494 25.035 10.4999 25.4025V28C10.4999 28.3978 10.6579 28.7794 10.9392 29.0607C11.2205 29.342 11.6021 29.5 11.9999 29.5C12.3977 29.5 12.7792 29.342 13.0605 29.0607C13.3419 28.7794 13.4999 28.3978 13.4999 28V25.4037C15.0922 25.2004 16.6228 24.66 17.9899 23.8187L20.8899 27.0087C21.1588 27.2977 21.5308 27.4689 21.9252 27.4854C22.3195 27.5019 22.7045 27.3622 22.9966 27.0968C23.2887 26.8313 23.4644 26.4614 23.4856 26.0673C23.5068 25.6731 23.3718 25.2865 23.1099 24.9912L3.10989 2.99125ZM11.9999 17.5C11.0716 17.5 10.1814 17.1313 9.52501 16.4749C8.86864 15.8185 8.49989 14.9283 8.49989 14V13.375L12.2374 17.4862C12.1586 17.5 12.0799 17.5 11.9999 17.5ZM7.33364 4.65875C7.18979 4.52338 7.0741 4.36094 6.9932 4.18075C6.9123 4.00055 6.86778 3.80616 6.86221 3.60871C6.85663 3.41127 6.89011 3.21467 6.96071 3.0302C7.03132 2.84572 7.13766 2.67701 7.27364 2.53375C8.16735 1.58718 9.3247 0.930779 10.5958 0.649565C11.8668 0.368351 13.1931 0.475282 14.4027 0.956509C15.6123 1.43774 16.6495 2.27108 17.38 3.34861C18.1105 4.42614 18.5007 5.69819 18.4999 7V13.0675C18.4999 13.4653 18.3419 13.8469 18.0605 14.1282C17.7792 14.4095 17.3977 14.5675 16.9999 14.5675C16.6021 14.5675 16.2205 14.4095 15.9392 14.1282C15.6579 13.8469 15.4999 13.4653 15.4999 13.0675V7C15.4998 6.29921 15.2894 5.61457 14.8959 5.03471C14.5024 4.45486 13.9438 4.00649 13.2926 3.74766C12.6413 3.48884 11.9274 3.43147 11.2432 3.58298C10.5589 3.7345 9.93597 4.08792 9.45489 4.5975C9.31967 4.74087 9.15752 4.85619 8.97771 4.93687C8.7979 5.01755 8.60395 5.062 8.40696 5.06769C8.20996 5.07337 8.01377 5.04019 7.82961 4.97002C7.64544 4.89985 7.47691 4.79408 7.33364 4.65875ZM19.8749 17.1975C20.2886 16.1823 20.5009 15.0963 20.4999 14C20.4999 13.6022 20.6579 13.2206 20.9392 12.9393C21.2205 12.658 21.6021 12.5 21.9999 12.5C22.3977 12.5 22.7792 12.658 23.0605 12.9393C23.3419 13.2206 23.4999 13.6022 23.4999 14C23.5023 15.4831 23.2161 16.9524 22.6574 18.3262C22.4983 18.6801 22.2082 18.9585 21.8482 19.1031C21.4881 19.2476 21.0861 19.247 20.7264 19.1014C20.3668 18.9558 20.0776 18.6766 19.9195 18.3222C19.7614 17.9679 19.7468 17.5661 19.8786 17.2012L19.8749 17.1975Z" fill="currentColor"/>
        </symbol>
        <symbol id="chevron" viewBox="0 0 16 16" fill="none">
            <path d="M10.5307 12.4693C10.6715 12.6102 10.7507 12.8013 10.7507 13.0006C10.7507 13.1998 10.6715 13.3909 10.5307 13.5318C10.3898 13.6727 10.1987 13.7519 9.9994 13.7519C9.80014 13.7519 9.60905 13.6727 9.46815 13.5318L4.46815 8.53182C4.39823 8.46214 4.34275 8.37935 4.3049 8.28818C4.26704 8.19702 4.24756 8.09928 4.24756 8.00057C4.24756 7.90186 4.26704 7.80412 4.3049 7.71295C4.34275 7.62179 4.39823 7.539 4.46815 7.46932L9.46815 2.46932C9.60905 2.32842 9.80014 2.24927 9.9994 2.24927C10.1987 2.24927 10.3898 2.32842 10.5307 2.46932C10.6715 2.61021 10.7507 2.80131 10.7507 3.00057C10.7507 3.19983 10.6715 3.39092 10.5307 3.53182L6.06252 7.99994L10.5307 12.4693Z" fill="currentColor"/>
        </symbol>
        <symbol id="people" viewBox="0 0 20 14" fill="none">
            <path d="M9.77935 9.26097C10.5646 8.60097 11.1278 7.71545 11.3926 6.72449C11.6575 5.73354 11.6111 4.68511 11.2599 3.72138C10.9087 2.75765 10.2695 1.92526 9.42918 1.3371C8.58882 0.748943 7.5879 0.433472 6.56217 0.433472C5.53643 0.433472 4.53551 0.748943 3.69515 1.3371C2.85479 1.92526 2.21566 2.75765 1.86443 3.72138C1.5132 4.68511 1.46686 5.73354 1.73171 6.72449C1.99656 7.71545 2.55978 8.60097 3.34498 9.26097C2.11887 9.81537 1.05632 10.6764 0.25982 11.761C0.112708 11.9614 0.0512562 12.2121 0.0889832 12.4579C0.12671 12.7037 0.260526 12.9244 0.460992 13.0715C0.661459 13.2186 0.912155 13.2801 1.15793 13.2423C1.40371 13.2046 1.62443 13.0708 1.77154 12.8703C2.3229 12.1173 3.04401 11.5049 3.87636 11.0827C4.70872 10.6605 5.62887 10.4405 6.56217 10.4405C7.49546 10.4405 8.41561 10.6605 9.24797 11.0827C10.0803 11.5049 10.8014 12.1173 11.3528 12.8703C11.4999 13.0709 11.7207 13.2048 11.9665 13.2426C12.2124 13.2804 12.4632 13.219 12.6637 13.0719C12.8643 12.9248 12.9982 12.704 13.036 12.4582C13.0738 12.2123 13.0124 11.9615 12.8653 11.761C12.0683 10.6765 11.0056 9.81556 9.77935 9.26097ZM3.43716 5.43753C3.43716 4.81946 3.62044 4.21527 3.96382 3.70137C4.3072 3.18747 4.79526 2.78693 5.36628 2.5504C5.9373 2.31388 6.56563 2.25199 7.17182 2.37257C7.77801 2.49315 8.33484 2.79078 8.77187 3.22782C9.20891 3.66486 9.50654 4.22168 9.62712 4.82787C9.7477 5.43406 9.68581 6.06239 9.44929 6.63341C9.21277 7.20443 8.81223 7.69249 8.29832 8.03587C7.78442 8.37925 7.18023 8.56253 6.56217 8.56253C5.73336 8.56253 4.93851 8.23329 4.35246 7.64724C3.7664 7.06118 3.43716 6.26633 3.43716 5.43753ZM19.5387 13.068C19.4395 13.1409 19.3268 13.1936 19.2072 13.223C19.0876 13.2523 18.9634 13.2579 18.8417 13.2392C18.7199 13.2206 18.603 13.1781 18.4977 13.1143C18.3924 13.0505 18.3007 12.9665 18.2278 12.8672C17.6751 12.1156 16.9537 11.5043 16.1216 11.0823C15.2896 10.6603 14.3701 10.4394 13.4372 10.4375C13.1885 10.4375 12.9501 10.3388 12.7743 10.1629C12.5984 9.98712 12.4997 9.74867 12.4997 9.50003C12.4997 9.25139 12.5984 9.01293 12.7743 8.83712C12.9501 8.6613 13.1885 8.56253 13.4372 8.56253C13.8973 8.56199 14.3516 8.45985 14.7677 8.2634C15.1838 8.06695 15.5514 7.78104 15.8442 7.4261C16.1369 7.07115 16.3478 6.65593 16.4615 6.21008C16.5753 5.76424 16.5891 5.29877 16.5022 4.84694C16.4152 4.3951 16.2296 3.96805 15.9585 3.59627C15.6873 3.2245 15.3375 2.91718 14.9339 2.69626C14.5302 2.47535 14.0828 2.34629 13.6235 2.31831C13.1643 2.29033 12.7045 2.36412 12.277 2.5344C12.1625 2.58129 12.0399 2.60504 11.9161 2.6043C11.7924 2.60355 11.67 2.57832 11.5561 2.53006C11.4422 2.4818 11.3389 2.41147 11.2523 2.32311C11.1657 2.23476 11.0974 2.13013 11.0514 2.01526C11.0054 1.90039 10.9826 1.77756 10.9844 1.65384C10.9861 1.53012 11.0123 1.40797 11.0614 1.29442C11.1106 1.18086 11.1817 1.07817 11.2707 0.992242C11.3598 0.906317 11.4649 0.838866 11.5801 0.793778C12.6835 0.352015 13.9082 0.31774 15.0345 0.697097C16.1609 1.07645 17.1152 1.84463 17.7265 2.8639C18.3378 3.88316 18.5661 5.08685 18.3703 6.25913C18.1745 7.43142 17.5676 8.49564 16.6583 9.26097C17.8844 9.81537 18.9469 10.6764 19.7434 11.761C19.8891 11.9616 19.9493 12.2118 19.9109 12.4567C19.8726 12.7017 19.7387 12.9215 19.5387 13.068Z" fill="currentColor"/>
        </symbol>
        <symbol id="zap" viewBox="0 0 24 24" fill="none">
            <rect x="2" y="2" width="20" height="20" rx="10" fill="white"/>
            <path fill-rule="evenodd" clip-rule="evenodd" d="M12 1C5.92487 1 1 5.92487 1 12C1 18.0751 5.92487 23 12 23C18.0751 23 23 18.0751 23 12C23 5.92487 18.0751 1 12 1ZM7.36156 12.2468L12 5.5V10.5H15.9791C16.472 10.5 16.7185 10.5 16.8528 10.6025C16.9698 10.6918 17.0415 10.8282 17.0488 10.9752C17.0572 11.144 16.9176 11.3471 16.6384 11.7532L12 18.5V13.5H8.02079C7.52792 13.5 7.28148 13.5 7.14713 13.3975C7.03012 13.3082 6.9584 13.1718 6.9511 13.0248C6.94272 12.856 7.08233 12.6529 7.36156 12.2468Z" fill="currentColor"/>
        </symbol>
        <symbol id="exit" viewBox="0 0 26 26" fill="none">
            <path d="M14.5 24C14.5 24.3978 14.658 24.7794 14.9393 25.0607C15.2206 25.342 15.6022 25.5 16 25.5H23C23.663 25.5 24.2989 25.2366 24.7678 24.7678C25.2366 24.2989 25.5 23.663 25.5 23V3C25.5 2.33696 25.2366 1.70107 24.7678 1.23223C24.2989 0.763392 23.663 0.5 23 0.5H16C15.6022 0.5 15.2206 0.658035 14.9393 0.93934C14.658 1.22064 14.5 1.60218 14.5 2C14.5 2.39782 14.658 2.77936 14.9393 3.06066C15.2206 3.34196 15.6022 3.5 16 3.5H22.5V22.5H16C15.6022 22.5 15.2206 22.658 14.9393 22.9393C14.658 23.2206 14.5 23.6022 14.5 24ZM0.938749 11.9388L5.93875 6.93875C6.22054 6.65696 6.60273 6.49865 7.00125 6.49865C7.39977 6.49865 7.78196 6.65696 8.06375 6.93875C8.34554 7.22054 8.50385 7.60274 8.50385 8.00125C8.50385 8.39977 8.34554 8.78196 8.06375 9.06375L5.625 11.5H16C16.3978 11.5 16.7794 11.658 17.0607 11.9393C17.342 12.2206 17.5 12.6022 17.5 13C17.5 13.3978 17.342 13.7794 17.0607 14.0607C16.7794 14.342 16.3978 14.5 16 14.5H5.625L8.065 16.9387C8.34679 17.2205 8.5051 17.6027 8.5051 18.0012C8.5051 18.3998 8.34679 18.782 8.065 19.0637C7.78321 19.3455 7.40102 19.5039 7.0025 19.5039C6.60398 19.5039 6.22179 19.3455 5.94 19.0637L0.940001 14.0637C0.800079 13.9245 0.689026 13.759 0.613211 13.5767C0.537395 13.3944 0.498308 13.1989 0.498192 13.0015C0.498075 12.8041 0.536932 12.6086 0.612534 12.4262C0.688135 12.2438 0.798992 12.0782 0.938749 11.9388Z" fill="currentColor"/>
        </symbol>
        <symbol id="hand" viewBox="0 0 24 30" fill="none">
            <path d="M19.5 9.49996C19.1627 9.4993 18.8267 9.5413 18.5 9.62496V6.49996C18.5006 5.85364 18.3445 5.2168 18.0452 4.64397C17.7458 4.07114 17.3121 3.57937 16.7812 3.21077C16.2503 2.84216 15.638 2.6077 14.9967 2.52745C14.3553 2.4472 13.7041 2.52355 13.0988 2.74996C12.7035 1.9353 12.0435 1.27886 11.2267 0.887983C10.4099 0.497104 9.48469 0.394917 8.60229 0.598133C7.7199 0.80135 6.93256 1.29794 6.36903 2.00671C5.8055 2.71547 5.49913 3.59447 5.5 4.49996V4.62496C4.90875 4.4723 4.2904 4.45704 3.69233 4.58034C3.09427 4.70363 2.53237 4.96222 2.04971 5.33629C1.56705 5.71035 1.17644 6.18995 0.907819 6.73833C0.639196 7.28672 0.499693 7.88932 0.500001 8.49996V18C0.500001 21.05 1.7116 23.975 3.86827 26.1317C6.02494 28.2884 8.95001 29.5 12 29.5C15.05 29.5 17.9751 28.2884 20.1317 26.1317C22.2884 23.975 23.5 21.05 23.5 18V13.5C23.5 12.4391 23.0786 11.4217 22.3284 10.6715C21.5783 9.92139 20.5609 9.49996 19.5 9.49996ZM20.5 18C20.5 20.2543 19.6045 22.4163 18.0104 24.0104C16.4163 25.6044 14.2543 26.5 12 26.5C9.74566 26.5 7.58365 25.6044 5.98959 24.0104C4.39553 22.4163 3.5 20.2543 3.5 18V8.49996C3.5 8.23475 3.60536 7.98039 3.79289 7.79286C3.98043 7.60532 4.23478 7.49996 4.5 7.49996C4.76522 7.49996 5.01957 7.60532 5.20711 7.79286C5.39464 7.98039 5.5 8.23475 5.5 8.49996V14C5.5 14.3978 5.65804 14.7793 5.93934 15.0606C6.22064 15.3419 6.60218 15.5 7 15.5C7.39783 15.5 7.77936 15.3419 8.06066 15.0606C8.34197 14.7793 8.5 14.3978 8.5 14V4.49996C8.5 4.23475 8.60536 3.98039 8.79289 3.79286C8.98043 3.60532 9.23478 3.49996 9.5 3.49996C9.76522 3.49996 10.0196 3.60532 10.2071 3.79286C10.3946 3.98039 10.5 4.23475 10.5 4.49996V13C10.5 13.3978 10.658 13.7793 10.9393 14.0606C11.2206 14.3419 11.6022 14.5 12 14.5C12.3978 14.5 12.7794 14.3419 13.0607 14.0606C13.342 13.7793 13.5 13.3978 13.5 13V6.49996C13.5 6.23475 13.6054 5.98039 13.7929 5.79286C13.9804 5.60532 14.2348 5.49996 14.5 5.49996C14.7652 5.49996 15.0196 5.60532 15.2071 5.79286C15.3946 5.98039 15.5 6.23475 15.5 6.49996V14.675C14.0773 15.0144 12.8103 15.823 11.9033 16.9705C10.9962 18.1179 10.5019 19.5373 10.5 21C10.5 21.3978 10.658 21.7793 10.9393 22.0606C11.2206 22.3419 11.6022 22.5 12 22.5C12.3978 22.5 12.7794 22.3419 13.0607 22.0606C13.342 21.7793 13.5 21.3978 13.5 21C13.5 20.0717 13.8687 19.1815 14.5251 18.5251C15.1815 17.8687 16.0717 17.5 17 17.5C17.3978 17.5 17.7794 17.3419 18.0607 17.0606C18.342 16.7793 18.5 16.3978 18.5 16V13.5C18.5 13.2347 18.6054 12.9804 18.7929 12.7929C18.9804 12.6053 19.2348 12.5 19.5 12.5C19.7652 12.5 20.0196 12.6053 20.2071 12.7929C20.3946 12.9804 20.5 13.2347 20.5 13.5V18Z" fill="currentColor"/>
        </symbol>
        <symbol id="smile" viewBox="0 0 28 28" fill="none">
            <path d="M20.2988 17.75C18.9238 20.1325 16.625 21.5 14 21.5C11.375 21.5 9.08001 20.1338 7.70126 17.75C7.51092 17.4061 7.4632 17.0012 7.56836 16.6224C7.67352 16.2436 7.92316 15.9213 8.26356 15.7247C8.60397 15.5281 9.00793 15.4731 9.38855 15.5713C9.76916 15.6695 10.096 15.9132 10.2988 16.25C10.785 17.0912 11.9125 18.5 14 18.5C16.0875 18.5 17.215 17.09 17.7013 16.25C17.7978 16.0756 17.928 15.9222 18.0845 15.7988C18.2409 15.6753 18.4204 15.5843 18.6124 15.531C18.8044 15.4777 19.0051 15.4632 19.2028 15.4883C19.4005 15.5134 19.5912 15.5777 19.7638 15.6773C19.9364 15.777 20.0874 15.9101 20.208 16.0687C20.3285 16.2274 20.4163 16.4085 20.4661 16.6014C20.5159 16.7944 20.5267 16.9954 20.498 17.1926C20.4693 17.3898 20.4015 17.5793 20.2988 17.75ZM27.5 14C27.5 16.67 26.7082 19.2801 25.2248 21.5002C23.7414 23.7203 21.633 25.4506 19.1662 26.4724C16.6994 27.4942 13.985 27.7615 11.3663 27.2406C8.74754 26.7197 6.34207 25.434 4.45406 23.5459C2.56606 21.6579 1.28031 19.2525 0.759405 16.6337C0.238504 14.015 0.505849 11.3006 1.52763 8.83377C2.54942 6.36697 4.27974 4.25856 6.49981 2.77516C8.71987 1.29176 11.33 0.5 14 0.5C17.5792 0.50397 21.0107 1.92756 23.5416 4.45844C26.0724 6.98932 27.496 10.4208 27.5 14ZM24.5 14C24.5 11.9233 23.8842 9.89323 22.7304 8.16651C21.5767 6.4398 19.9368 5.09399 18.0182 4.29926C16.0996 3.50454 13.9884 3.29661 11.9516 3.70175C9.91476 4.1069 8.04384 5.10693 6.57538 6.57538C5.10693 8.04383 4.10691 9.91475 3.70176 11.9516C3.29662 13.9884 3.50455 16.0996 4.29927 18.0182C5.09399 19.9368 6.4398 21.5767 8.16652 22.7304C9.89324 23.8842 11.9233 24.5 14 24.5C16.7839 24.497 19.4529 23.3898 21.4213 21.4213C23.3898 19.4528 24.497 16.7839 24.5 14ZM9.50001 13.5C9.89557 13.5 10.2822 13.3827 10.6111 13.1629C10.94 12.9432 11.1964 12.6308 11.3478 12.2654C11.4991 11.8999 11.5387 11.4978 11.4616 11.1098C11.3844 10.7219 11.1939 10.3655 10.9142 10.0858C10.6345 9.80608 10.2781 9.6156 9.89019 9.53843C9.50222 9.46126 9.10009 9.50087 8.73464 9.65224C8.36919 9.80362 8.05683 10.06 7.83707 10.3889C7.6173 10.7178 7.50001 11.1044 7.50001 11.5C7.50001 12.0304 7.71072 12.5391 8.08579 12.9142C8.46087 13.2893 8.96957 13.5 9.50001 13.5ZM18.5 9.5C18.1044 9.5 17.7178 9.6173 17.3889 9.83706C17.06 10.0568 16.8036 10.3692 16.6522 10.7346C16.5009 11.1001 16.4613 11.5022 16.5384 11.8902C16.6156 12.2781 16.8061 12.6345 17.0858 12.9142C17.3655 13.1939 17.7219 13.3844 18.1098 13.4616C18.4978 13.5387 18.8999 13.4991 19.2654 13.3478C19.6308 13.1964 19.9432 12.94 20.1629 12.6111C20.3827 12.2822 20.5 11.8956 20.5 11.5C20.5 10.9696 20.2893 10.4609 19.9142 10.0858C19.5391 9.71071 19.0304 9.5 18.5 9.5Z" fill="currentColor"/>
        </symbol>
        <symbol id="dots" viewBox="0 0 22 4" fill="none">
            <path d="M13 2C13 2.39556 12.8827 2.78224 12.6629 3.11114C12.4432 3.44004 12.1308 3.69638 11.7654 3.84776C11.3999 3.99913 10.9978 4.03874 10.6098 3.96157C10.2219 3.8844 9.86549 3.69392 9.58579 3.41421C9.30608 3.13451 9.1156 2.77814 9.03843 2.39018C8.96126 2.00222 9.00087 1.60009 9.15224 1.23463C9.30362 0.869181 9.55996 0.556824 9.88886 0.337061C10.2178 0.117298 10.6044 0 11 0C11.5304 0 12.0391 0.210714 12.4142 0.585787C12.7893 0.96086 13 1.46957 13 2ZM2.5 0C2.10444 0 1.71776 0.117298 1.38886 0.337061C1.05996 0.556824 0.803617 0.869181 0.652242 1.23463C0.500867 1.60009 0.46126 2.00222 0.53843 2.39018C0.615601 2.77814 0.806082 3.13451 1.08579 3.41421C1.36549 3.69392 1.72186 3.8844 2.10982 3.96157C2.49778 4.03874 2.89992 3.99913 3.26537 3.84776C3.63082 3.69638 3.94318 3.44004 4.16294 3.11114C4.3827 2.78224 4.5 2.39556 4.5 2C4.5 1.46957 4.28929 0.96086 3.91421 0.585787C3.53914 0.210714 3.03043 0 2.5 0ZM19.5 0C19.1044 0 18.7178 0.117298 18.3889 0.337061C18.06 0.556824 17.8036 0.869181 17.6522 1.23463C17.5009 1.60009 17.4613 2.00222 17.5384 2.39018C17.6156 2.77814 17.8061 3.13451 18.0858 3.41421C18.3655 3.69392 18.7219 3.8844 19.1098 3.96157C19.4978 4.03874 19.8999 3.99913 20.2654 3.84776C20.6308 3.69638 20.9432 3.44004 21.1629 3.11114C21.3827 2.78224 21.5 2.39556 21.5 2C21.5 1.46957 21.2893 0.96086 20.9142 0.585787C20.5391 0.210714 20.0304 0 19.5 0Z" fill="currentcolor"/>
        </symbol>
        <symbol id="gear" viewBox="0 0 18 18" fill="none">
            <path d="M8.99974 4.93748C8.19625 4.93748 7.41081 5.17574 6.74273 5.62213C6.07466 6.06853 5.55396 6.703 5.24648 7.44533C4.93899 8.18765 4.85854 9.00449 5.0153 9.79253C5.17205 10.5806 5.55896 11.3045 6.12712 11.8726C6.69527 12.4408 7.41913 12.8277 8.20718 12.9844C8.99523 13.1412 9.81206 13.0607 10.5544 12.7532C11.2967 12.4458 11.9312 11.9251 12.3776 11.257C12.824 10.5889 13.0622 9.80347 13.0622 8.99998C13.061 7.92292 12.6326 6.89033 11.871 6.12873C11.1094 5.36713 10.0768 4.93872 8.99974 4.93748ZM8.99974 11.1875C8.56709 11.1875 8.14416 11.0592 7.78443 10.8188C7.42469 10.5785 7.14432 10.2368 6.97875 9.8371C6.81318 9.43739 6.76986 8.99755 6.85427 8.57322C6.93867 8.14889 7.14701 7.75911 7.45294 7.45318C7.75887 7.14726 8.14864 6.93892 8.57298 6.85451C8.99731 6.77011 9.43714 6.81343 9.83686 6.97899C10.2366 7.14456 10.5782 7.42494 10.8186 7.78467C11.0589 8.1444 11.1872 8.56733 11.1872 8.99998C11.1872 9.58014 10.9568 10.1365 10.5465 10.5468C10.1363 10.957 9.5799 11.1875 8.99974 11.1875ZM16.1872 9.0617V8.93826L17.281 7.57029C17.3728 7.45567 17.4364 7.32108 17.4667 7.17737C17.4969 7.03367 17.493 6.88486 17.4552 6.74295C17.2578 5.9985 16.9628 5.28344 16.5779 4.61639C16.5037 4.48918 16.4006 4.38124 16.277 4.30129C16.1533 4.22135 16.0126 4.17165 15.8661 4.15623L14.1255 3.96092L14.0388 3.8742L13.8435 2.13279C13.8279 1.9865 13.7782 1.84591 13.6983 1.7224C13.6183 1.5989 13.5104 1.49594 13.3833 1.42185C12.7162 1.03567 12.0009 0.739607 11.256 0.541386C11.1139 0.50415 10.9652 0.500799 10.8216 0.531603C10.678 0.562407 10.5437 0.626504 10.4294 0.71873L9.06146 1.81248H8.93802L7.57005 0.71873C7.45543 0.626918 7.32084 0.563319 7.17713 0.533058C7.03343 0.502796 6.88462 0.50672 6.74271 0.544511C5.99806 0.743114 5.28299 1.03944 4.61614 1.42576C4.48943 1.49954 4.3818 1.60201 4.30188 1.72494C4.22196 1.84787 4.17199 1.98783 4.15599 2.13357L3.96067 3.8742L3.87396 3.96092L2.13255 4.15623C1.98625 4.17177 1.84567 4.22152 1.72216 4.30146C1.59866 4.3814 1.4957 4.48928 1.42161 4.61639C1.03652 5.28365 0.741502 5.99899 0.544267 6.74373C0.506605 6.88553 0.502748 7.03418 0.533007 7.17774C0.563266 7.3213 0.626796 7.45576 0.718486 7.57029L1.81224 8.93826V9.0617L0.718486 10.4297C0.626675 10.5443 0.563075 10.6789 0.532814 10.8226C0.502553 10.9663 0.506476 11.1151 0.544267 11.257C0.743117 12.0017 1.0397 12.7168 1.4263 13.3836C1.5 13.5102 1.60235 13.6178 1.72513 13.6977C1.84792 13.7776 1.98772 13.8276 2.13333 13.8437L3.87396 14.0375L3.96067 14.1242L4.15599 15.8672C4.17153 16.0135 4.22128 16.154 4.30122 16.2776C4.38116 16.4011 4.48904 16.504 4.61614 16.5781C5.28325 16.9643 5.99859 17.2604 6.74349 17.4586C6.88552 17.4958 7.03432 17.4992 7.17789 17.4684C7.32146 17.4376 7.45579 17.3735 7.57005 17.2812L8.93802 16.1875H9.06146L10.4294 17.2812C10.544 17.373 10.6786 17.4366 10.8223 17.4669C10.966 17.4972 11.1149 17.4932 11.2568 17.4554C12.0012 17.2581 12.7163 16.9631 13.3833 16.5781C13.5103 16.5045 13.6183 16.4021 13.6985 16.2792C13.7787 16.1562 13.8289 16.0162 13.8451 15.8703L14.0388 14.1297L14.1255 14.0429L15.8669 13.8437C16.0128 13.8276 16.1529 13.7773 16.2758 13.6971C16.3987 13.617 16.5011 13.509 16.5747 13.382C16.9609 12.7149 17.257 11.9996 17.4552 11.2547C17.4926 11.1131 17.4963 10.9647 17.4661 10.8215C17.4358 10.6782 17.3724 10.544 17.281 10.4297L16.1872 9.0617ZM14.3029 8.67967C14.3154 8.89303 14.3154 9.10693 14.3029 9.32029C14.2889 9.55223 14.3616 9.78108 14.5068 9.96248L15.5099 11.2164C15.4152 11.4967 15.3022 11.7704 15.1716 12.0359L13.5755 12.2133C13.3444 12.2397 13.1314 12.3511 12.9779 12.5258C12.8359 12.6857 12.6846 12.837 12.5247 12.9789C12.35 13.1324 12.2387 13.3455 12.2122 13.5765L12.0357 15.1719C11.7702 15.303 11.4965 15.4165 11.2161 15.5117L9.96224 14.5078C9.79583 14.375 9.58919 14.3028 9.3763 14.3031C9.35755 14.3031 9.3388 14.3031 9.32005 14.3031C9.10669 14.3156 8.89278 14.3156 8.67942 14.3031C8.44765 14.2894 8.21896 14.3617 8.03724 14.5062L6.78333 15.5101C6.50304 15.4154 6.22927 15.3024 5.9638 15.1719L5.78646 13.5758C5.76003 13.3447 5.64865 13.1317 5.47396 12.9781C5.31406 12.8362 5.16275 12.6849 5.02083 12.525C4.86727 12.3503 4.65426 12.2389 4.42317 12.2125L2.82786 12.0359C2.69674 11.7705 2.58322 11.4967 2.48802 11.2164L3.49114 9.96248C3.63634 9.78108 3.70901 9.55223 3.69505 9.32029C3.68255 9.10693 3.68255 8.89303 3.69505 8.67967C3.70901 8.44773 3.63634 8.21888 3.49114 8.03748L2.48958 6.78357C2.58427 6.50328 2.69728 6.22952 2.82786 5.96404L4.42396 5.7867C4.65504 5.76028 4.86806 5.6489 5.02161 5.4742C5.16353 5.3143 5.31484 5.163 5.47474 5.02107C5.64944 4.86752 5.76082 4.6545 5.78724 4.42342L5.9638 2.8281C6.22923 2.69699 6.503 2.58346 6.78333 2.48826L8.03724 3.49217C8.21896 3.63669 8.44765 3.70902 8.67942 3.69529C8.89278 3.68279 9.10669 3.68279 9.32005 3.69529C9.55188 3.70947 9.78073 3.63709 9.96224 3.49217L11.2161 2.48826C11.4965 2.58346 11.7702 2.69699 12.0357 2.8281L12.213 4.4242C12.2394 4.65528 12.3508 4.8683 12.5255 5.02185C12.6854 5.16378 12.8367 5.31509 12.9786 5.47498C13.1322 5.64968 13.3452 5.76106 13.5763 5.78748L15.1716 5.96404C15.3027 6.22948 15.4163 6.50324 15.5115 6.78357L14.5083 8.03748C14.3626 8.21865 14.2893 8.44753 14.3029 8.67967Z" fill="currentColor"/>
        </symbol>
        <symbol id="eye" viewBox="0 0 24 16" fill="none">
            <path d="M23.5314 7.54344C23.4967 7.4675 22.6754 5.64406 20.8614 3.83C18.4342 1.40656 15.3751 0.125 12.0001 0.125C8.62512 0.125 5.56606 1.40656 3.14169 3.83C1.32762 5.64406 0.506374 7.4675 0.468874 7.54344C0.405361 7.68743 0.372559 7.84309 0.372559 8.00047C0.372559 8.15785 0.405361 8.3135 0.468874 8.4575C0.503561 8.53438 1.32481 10.3569 3.13981 12.1709C5.56606 14.5944 8.62512 15.875 12.0001 15.875C15.3751 15.875 18.4342 14.5944 20.8576 12.1709C22.6726 10.3569 23.4939 8.53438 23.5286 8.4575C23.5925 8.3137 23.6258 8.15815 23.6263 8.00077C23.6268 7.84338 23.5944 7.68763 23.5314 7.54344ZM19.2132 10.6372C17.2004 12.6191 14.7742 13.625 12.0001 13.625C9.22606 13.625 6.79981 12.6191 4.78981 10.6362C3.99888 9.85365 3.31854 8.96671 2.76762 8C3.3187 7.03368 3.99903 6.14707 4.78981 5.36469C6.80075 3.38094 9.22606 2.375 12.0001 2.375C14.7742 2.375 17.1995 3.38094 19.2104 5.36469C20.0013 6.147 20.6816 7.03362 21.2326 8C20.6816 8.96665 20.0013 9.85358 19.2104 10.6362L19.2132 10.6372ZM12.0001 3.875C11.1843 3.875 10.3867 4.11693 9.7084 4.57019C9.03004 5.02345 8.50133 5.66769 8.18912 6.42143C7.87691 7.17518 7.79522 8.00458 7.95439 8.80475C8.11355 9.60492 8.50642 10.3399 9.08331 10.9168C9.6602 11.4937 10.3952 11.8866 11.1954 12.0457C11.9955 12.2049 12.8249 12.1232 13.5787 11.811C14.3324 11.4988 14.9767 10.9701 15.4299 10.2917C15.8832 9.61337 16.1251 8.81585 16.1251 8C16.1239 6.90636 15.6889 5.85787 14.9156 5.08455C14.1423 4.31124 13.0938 3.87624 12.0001 3.875ZM12.0001 9.875C11.6293 9.875 11.2668 9.76503 10.9584 9.55901C10.6501 9.35298 10.4098 9.06014 10.2678 8.71753C10.1259 8.37492 10.0888 7.99792 10.1612 7.63421C10.2335 7.27049 10.4121 6.9364 10.6743 6.67417C10.9365 6.41195 11.2706 6.23337 11.6343 6.16103C11.998 6.08868 12.375 6.12581 12.7177 6.26773C13.0603 6.40964 13.3531 6.64996 13.5591 6.95831C13.7652 7.26665 13.8751 7.62916 13.8751 8C13.8751 8.49728 13.6776 8.97419 13.3259 9.32582C12.9743 9.67746 12.4974 9.875 12.0001 9.875Z" fill="currentColor"/>
        </symbol>
        <symbol id="user-plus" viewBox="0 0 23 18" fill="none">
            <path d="M23.0002 10.7499C23.0002 11.0483 22.8817 11.3344 22.6707 11.5454C22.4597 11.7564 22.1736 11.8749 21.8752 11.8749H21.1252V12.6249C21.1252 12.9233 21.0067 13.2094 20.7957 13.4204C20.5847 13.6314 20.2986 13.7499 20.0002 13.7499C19.7018 13.7499 19.4157 13.6314 19.2047 13.4204C18.9937 13.2094 18.8752 12.9233 18.8752 12.6249V11.8749H18.1252C17.8268 11.8749 17.5407 11.7564 17.3297 11.5454C17.1187 11.3344 17.0002 11.0483 17.0002 10.7499C17.0002 10.4515 17.1187 10.1654 17.3297 9.95439C17.5407 9.74341 17.8268 9.62488 18.1252 9.62488H18.8752V8.87488C18.8752 8.57652 18.9937 8.29037 19.2047 8.07939C19.4157 7.86841 19.7018 7.74988 20.0002 7.74988C20.2986 7.74988 20.5847 7.86841 20.7957 8.07939C21.0067 8.29037 21.1252 8.57652 21.1252 8.87488V9.62488H21.8752C22.1736 9.62488 22.4597 9.74341 22.6707 9.95439C22.8817 10.1654 23.0002 10.4515 23.0002 10.7499ZM17.8618 16.0261C18.0537 16.2546 18.147 16.55 18.1212 16.8473C18.0954 17.1446 17.9525 17.4195 17.724 17.6114C17.4955 17.8034 17.2001 17.8967 16.9028 17.8709C16.6055 17.845 16.3306 17.7021 16.1387 17.4736C14.8552 15.9455 12.594 14.1249 9.12522 14.1249C6.41678 14.1249 3.92584 15.3136 2.11178 17.4736C1.91983 17.7021 1.64497 17.845 1.34766 17.8709C1.05036 17.8967 0.754966 17.8034 0.526466 17.6114C0.297965 17.4195 0.155076 17.1446 0.129231 16.8473C0.103386 16.55 0.196703 16.2546 0.388653 16.0261C1.6109 14.55 3.17892 13.3987 4.95334 12.6746C3.84993 11.8071 3.04439 10.6172 2.64883 9.2705C2.25326 7.92381 2.28733 6.4873 2.74632 5.16087C3.2053 3.83445 4.06635 2.6841 5.20965 1.86991C6.35295 1.05571 7.72163 0.618164 9.12522 0.618164C10.5288 0.618164 11.8975 1.05571 13.0408 1.86991C14.1841 2.6841 15.0451 3.83445 15.5041 5.16087C15.9631 6.4873 15.9972 7.92381 15.6016 9.2705C15.206 10.6172 14.4005 11.8071 13.2971 12.6746C15.0717 13.3984 16.6398 14.5498 17.8618 16.0261ZM9.12522 11.8749C10.0152 11.8749 10.8853 11.611 11.6253 11.1165C12.3653 10.622 12.9421 9.91923 13.2827 9.09696C13.6233 8.27469 13.7124 7.36989 13.5387 6.49698C13.3651 5.62406 12.9365 4.82224 12.3072 4.1929C11.6779 3.56357 10.876 3.13498 10.0031 2.96135C9.13021 2.78772 8.22541 2.87683 7.40314 3.21743C6.58087 3.55802 5.87807 4.1348 5.3836 4.87482C4.88914 5.61484 4.62522 6.48487 4.62522 7.37488C4.62646 8.56798 5.10096 9.71185 5.94461 10.5555C6.78825 11.3991 7.93212 11.8736 9.12522 11.8749Z" fill="currentColor"/>
        </symbol>
        <symbol id="enter" viewBox="0 0 19 20" fill="none" >
            <path d="M12.5459 10.7959L8.79594 14.5459C8.58459 14.7573 8.29795 14.876 7.99906 14.876C7.70018 14.876 7.41353 14.7573 7.20219 14.5459C6.99084 14.3346 6.87211 14.0479 6.87211 13.7491C6.87211 13.4502 6.99084 13.1635 7.20219 12.9522L9.03125 11.125H1.25C0.951631 11.125 0.665483 11.0065 0.454505 10.7955C0.243526 10.5845 0.125 10.2984 0.125 10C0.125 9.70163 0.243526 9.41548 0.454505 9.2045C0.665483 8.99353 0.951631 8.875 1.25 8.875H9.03125L7.20406 7.04594C7.09942 6.94129 7.0164 6.81706 6.95977 6.68033C6.90314 6.5436 6.87399 6.39706 6.87399 6.24906C6.87399 5.95018 6.99272 5.66353 7.20406 5.45219C7.41541 5.24084 7.70205 5.12211 8.00094 5.12211C8.29982 5.12211 8.58647 5.24084 8.79781 5.45219L12.5478 9.20219C12.6526 9.30683 12.7356 9.43112 12.7923 9.56793C12.8489 9.70474 12.8779 9.85139 12.8778 9.99945C12.8776 10.1475 12.8482 10.2941 12.7912 10.4308C12.7343 10.5675 12.6509 10.6915 12.5459 10.7959ZM17 0.625H11.75C11.4516 0.625 11.1655 0.743526 10.9545 0.954505C10.7435 1.16548 10.625 1.45163 10.625 1.75C10.625 2.04837 10.7435 2.33452 10.9545 2.5455C11.1655 2.75647 11.4516 2.875 11.75 2.875H16.625V17.125H11.75C11.4516 17.125 11.1655 17.2435 10.9545 17.4545C10.7435 17.6655 10.625 17.9516 10.625 18.25C10.625 18.5484 10.7435 18.8345 10.9545 19.0455C11.1655 19.2565 11.4516 19.375 11.75 19.375H17C17.4973 19.375 17.9742 19.1775 18.3258 18.8258C18.6775 18.4742 18.875 17.9973 18.875 17.5V2.5C18.875 2.00272 18.6775 1.52581 18.3258 1.17417C17.9742 0.822544 17.4973 0.625 17 0.625Z" fill="currentColor"/>
        </symbol>
        <symbol id="admin" viewBox="0 0 20 20" fill="none">
            <path d="M5.20563 7.83281C5.26045 7.69558 5.34177 7.5705 5.44495 7.4647C5.54812 7.35891 5.67113 7.27448 5.80694 7.21624C5.94276 7.158 6.08871 7.12708 6.23648 7.12526C6.38424 7.12344 6.53092 7.15075 6.66813 7.20563L8.875 8.08875V6C8.875 5.70163 8.99353 5.41548 9.2045 5.2045C9.41548 4.99353 9.70163 4.875 10 4.875C10.2984 4.875 10.5845 4.99353 10.7955 5.2045C11.0065 5.41548 11.125 5.70163 11.125 6V8.08875L13.3319 7.20563C13.6083 7.09745 13.9163 7.10292 14.1887 7.22083C14.4611 7.33875 14.6759 7.55955 14.7862 7.83513C14.8966 8.11071 14.8935 8.41873 14.7777 8.69206C14.662 8.9654 14.4428 9.18189 14.1681 9.29437L11.7812 10.2497L13.15 12.075C13.2386 12.1932 13.3031 12.3277 13.3398 12.4708C13.3765 12.6139 13.3846 12.7628 13.3637 12.9091C13.3428 13.0554 13.2933 13.1961 13.218 13.3232C13.1428 13.4503 13.0432 13.5614 12.925 13.65C12.8068 13.7386 12.6723 13.8031 12.5292 13.8398C12.3861 13.8765 12.2372 13.8846 12.0909 13.8637C11.9446 13.8428 11.8039 13.7933 11.6768 13.718C11.5497 13.6428 11.4386 13.5432 11.35 13.425L10 11.625L8.65 13.425C8.56136 13.5432 8.4503 13.6428 8.32318 13.718C8.19606 13.7933 8.05535 13.8428 7.9091 13.8637C7.76285 13.8846 7.61391 13.8765 7.4708 13.8398C7.32768 13.8031 7.19319 13.7386 7.075 13.65C6.95681 13.5614 6.85724 13.4503 6.78197 13.3232C6.7067 13.1961 6.6572 13.0554 6.63631 12.9091C6.61541 12.7628 6.62353 12.6139 6.6602 12.4708C6.69686 12.3277 6.76136 12.1932 6.85 12.075L8.21875 10.2497L5.83187 9.29437C5.55513 9.18347 5.33372 8.96724 5.2163 8.69319C5.09887 8.41914 5.09503 8.10969 5.20563 7.83281ZM19.375 2.25V7.7625C19.375 16.4212 12.0531 19.2937 10.585 19.7794C10.2051 19.9069 9.79397 19.9069 9.41406 19.7794C7.94688 19.2919 0.625 16.4212 0.625 7.7625V2.25C0.625 1.75272 0.822544 1.27581 1.17417 0.924175C1.52581 0.572544 2.00272 0.375 2.5 0.375H17.5C17.9973 0.375 18.4742 0.572544 18.8258 0.924175C19.1775 1.27581 19.375 1.75272 19.375 2.25ZM17.125 2.625H2.875V7.7625C2.875 14.6588 8.54969 17.0934 10 17.6063C11.4513 17.0972 17.125 14.6625 17.125 7.76719V2.625Z" fill="currentColor"/>
        </symbol>
        <symbol id="minus-circle" viewBox="0 0 22 22" fill="none">
            <path d="M15.875 11C15.875 11.2984 15.7565 11.5845 15.5455 11.7955C15.3345 12.0065 15.0484 12.125 14.75 12.125H7.25C6.95164 12.125 6.66549 12.0065 6.45451 11.7955C6.24353 11.5845 6.125 11.2984 6.125 11C6.125 10.7016 6.24353 10.4155 6.45451 10.2045C6.66549 9.99353 6.95164 9.875 7.25 9.875H14.75C15.0484 9.875 15.3345 9.99353 15.5455 10.2045C15.7565 10.4155 15.875 10.7016 15.875 11ZM21.125 11C21.125 13.0025 20.5312 14.9601 19.4186 16.6251C18.3061 18.2902 16.7248 19.5879 14.8747 20.3543C13.0246 21.1206 10.9888 21.3211 9.02471 20.9305C7.06066 20.5398 5.25656 19.5755 3.84055 18.1595C2.42454 16.7435 1.46023 14.9393 1.06955 12.9753C0.678878 11.0112 0.879387 8.97543 1.64572 7.12533C2.41206 5.27523 3.70981 3.69392 5.37486 2.58137C7.0399 1.46882 8.99747 0.875 11 0.875C13.6844 0.877978 16.258 1.94567 18.1562 3.84383C20.0543 5.74199 21.122 8.3156 21.125 11ZM18.875 11C18.875 9.44247 18.4131 7.91992 17.5478 6.62488C16.6825 5.32985 15.4526 4.32049 14.0136 3.72445C12.5747 3.12841 10.9913 2.97246 9.46367 3.27632C7.93607 3.58017 6.53288 4.3302 5.43154 5.43153C4.3302 6.53287 3.58018 7.93606 3.27632 9.46366C2.97246 10.9913 3.12841 12.5747 3.72445 14.0136C4.32049 15.4526 5.32985 16.6825 6.62489 17.5478C7.91993 18.4131 9.44248 18.875 11 18.875C13.0879 18.8728 15.0896 18.0424 16.566 16.566C18.0424 15.0896 18.8728 13.0879 18.875 11Z" fill="currentColor"/>
        </symbol>
        <symbol id="x" viewBox="0 0 14 14" fill="none" >
            <path d="M13.2882 11.962C13.4644 12.1381 13.5633 12.377 13.5633 12.626C13.5633 12.8751 13.4644 13.114 13.2882 13.2901C13.1121 13.4662 12.8733 13.5652 12.6242 13.5652C12.3751 13.5652 12.1362 13.4662 11.9601 13.2901L6.99997 8.32838L2.03825 13.2885C1.86213 13.4647 1.62326 13.5636 1.37418 13.5636C1.12511 13.5636 0.886243 13.4647 0.710122 13.2885C0.534002 13.1124 0.435059 12.8736 0.435059 12.6245C0.435059 12.3754 0.534002 12.1365 0.710122 11.9604L5.67184 7.00026L0.711685 2.03854C0.535564 1.86242 0.436621 1.62355 0.436621 1.37448C0.436621 1.12541 0.535564 0.886536 0.711685 0.710415C0.887805 0.534295 1.12668 0.435351 1.37575 0.435351C1.62482 0.435351 1.86369 0.534295 2.03981 0.710415L6.99997 5.67213L11.9617 0.709634C12.1378 0.533514 12.3767 0.43457 12.6257 0.43457C12.8748 0.43457 13.1137 0.533514 13.2898 0.709634C13.4659 0.885754 13.5649 1.12462 13.5649 1.3737C13.5649 1.62277 13.4659 1.86164 13.2898 2.03776L8.32809 7.00026L13.2882 11.962Z" fill="currentColor"/>
        </symbol>
        <symbol id="person" viewBox="0 0 22 21" fill="none">
            <path d="M20.9734 18.6874C19.688 16.4315 17.6809 14.6737 15.2752 13.6971C16.4716 12.7998 17.3553 11.5489 17.8011 10.1215C18.247 8.69412 18.2325 7.16262 17.7596 5.74395C17.2867 4.32527 16.3794 3.09135 15.1663 2.21697C13.9531 1.34259 12.4956 0.87207 11.0002 0.87207C9.50481 0.87207 8.04731 1.34259 6.83416 2.21697C5.62102 3.09135 4.71375 4.32527 4.24086 5.74395C3.76797 7.16262 3.75343 8.69412 4.19932 10.1215C4.6452 11.5489 5.52889 12.7998 6.72522 13.6971C4.31953 14.6737 2.31245 16.4315 1.0271 18.6874C0.947454 18.8154 0.894371 18.9582 0.871006 19.1072C0.847641 19.2562 0.85447 19.4084 0.891088 19.5547C0.927706 19.701 0.993366 19.8384 1.08416 19.9588C1.17496 20.0792 1.28904 20.1802 1.41963 20.2556C1.55021 20.3311 1.69463 20.3795 1.8443 20.398C1.99397 20.4165 2.14584 20.4047 2.29087 20.3634C2.4359 20.322 2.57114 20.252 2.68854 20.1573C2.80595 20.0626 2.90312 19.9453 2.97429 19.8124C4.67304 16.8761 7.67304 15.1249 11.0002 15.1249C14.3274 15.1249 17.3274 16.8771 19.0262 19.8124C19.1804 20.0604 19.425 20.2387 19.7083 20.3096C19.9916 20.3805 20.2914 20.3385 20.5443 20.1924C20.7972 20.0463 20.9833 19.8076 21.0634 19.5267C21.1434 19.2458 21.1112 18.9449 20.9734 18.6874ZM6.12523 7.99988C6.12523 7.0357 6.41114 6.09317 6.94681 5.29148C7.48248 4.48979 8.24385 3.86495 9.13464 3.49597C10.0254 3.12699 11.0056 3.03045 11.9513 3.21855C12.8969 3.40666 13.7656 3.87096 14.4474 4.55274C15.1292 5.23452 15.5935 6.10316 15.7816 7.04882C15.9697 7.99447 15.8731 8.97467 15.5041 9.86546C15.1352 10.7563 14.5103 11.5176 13.7086 12.0533C12.9069 12.589 11.9644 12.8749 11.0002 12.8749C9.70775 12.8734 8.46864 12.3593 7.55472 11.4454C6.64081 10.5315 6.12671 9.29236 6.12523 7.99988Z" fill="currentColor"/>
        </symbol>
        <symbol id="copy" viewBox="0 0 20 20" fill="none">
            <path d="M18.25 0.625H6.25C5.95163 0.625 5.66548 0.743526 5.4545 0.954505C5.24353 1.16548 5.125 1.45163 5.125 1.75V5.125H1.75C1.45163 5.125 1.16548 5.24353 0.954505 5.4545C0.743526 5.66548 0.625 5.95163 0.625 6.25V18.25C0.625 18.5484 0.743526 18.8345 0.954505 19.0455C1.16548 19.2565 1.45163 19.375 1.75 19.375H13.75C14.0484 19.375 14.3345 19.2565 14.5455 19.0455C14.7565 18.8345 14.875 18.5484 14.875 18.25V14.875H18.25C18.5484 14.875 18.8345 14.7565 19.0455 14.5455C19.2565 14.3345 19.375 14.0484 19.375 13.75V1.75C19.375 1.45163 19.2565 1.16548 19.0455 0.954505C18.8345 0.743526 18.5484 0.625 18.25 0.625ZM12.625 17.125H2.875V7.375H12.625V17.125ZM17.125 12.625H14.875V6.25C14.875 5.95163 14.7565 5.66548 14.5455 5.4545C14.3345 5.24353 14.0484 5.125 13.75 5.125H7.375V2.875H17.125V12.625Z" fill="currentColor"/>
        </symbol>
        <symbol id="audio" viewBox="0 0 18 22" fill="none">
            <path d="M2.625 8V14C2.625 14.2984 2.50647 14.5845 2.2955 14.7955C2.08452 15.0065 1.79837 15.125 1.5 15.125C1.20163 15.125 0.915483 15.0065 0.704505 14.7955C0.493526 14.5845 0.375 14.2984 0.375 14V8C0.375 7.70163 0.493526 7.41548 0.704505 7.2045C0.915483 6.99353 1.20163 6.875 1.5 6.875C1.79837 6.875 2.08452 6.99353 2.2955 7.2045C2.50647 7.41548 2.625 7.70163 2.625 8ZM5.25 0.875C4.95163 0.875 4.66548 0.993526 4.4545 1.2045C4.24353 1.41548 4.125 1.70163 4.125 2V20C4.125 20.2984 4.24353 20.5845 4.4545 20.7955C4.66548 21.0065 4.95163 21.125 5.25 21.125C5.54837 21.125 5.83452 21.0065 6.0455 20.7955C6.25647 20.5845 6.375 20.2984 6.375 20V2C6.375 1.70163 6.25647 1.41548 6.0455 1.2045C5.83452 0.993526 5.54837 0.875 5.25 0.875ZM9 3.875C8.70163 3.875 8.41548 3.99353 8.2045 4.2045C7.99353 4.41548 7.875 4.70163 7.875 5V17C7.875 17.2984 7.99353 17.5845 8.2045 17.7955C8.41548 18.0065 8.70163 18.125 9 18.125C9.29837 18.125 9.58452 18.0065 9.79549 17.7955C10.0065 17.5845 10.125 17.2984 10.125 17V5C10.125 4.70163 10.0065 4.41548 9.79549 4.2045C9.58452 3.99353 9.29837 3.875 9 3.875ZM12.75 6.875C12.4516 6.875 12.1655 6.99353 11.9545 7.2045C11.7435 7.41548 11.625 7.70163 11.625 8V14C11.625 14.2984 11.7435 14.5845 11.9545 14.7955C12.1655 15.0065 12.4516 15.125 12.75 15.125C13.0484 15.125 13.3345 15.0065 13.5455 14.7955C13.7565 14.5845 13.875 14.2984 13.875 14V8C13.875 7.70163 13.7565 7.41548 13.5455 7.2045C13.3345 6.99353 13.0484 6.875 12.75 6.875ZM16.5 5.375C16.2016 5.375 15.9155 5.49353 15.7045 5.7045C15.4935 5.91548 15.375 6.20163 15.375 6.5V15.5C15.375 15.7984 15.4935 16.0845 15.7045 16.2955C15.9155 16.5065 16.2016 16.625 16.5 16.625C16.7984 16.625 17.0845 16.5065 17.2955 16.2955C17.5065 16.0845 17.625 15.7984 17.625 15.5V6.5C17.625 6.20163 17.5065 5.91548 17.2955 5.7045C17.0845 5.49353 16.7984 5.375 16.5 5.375Z" fill="currentColor"/>
        </symbol>
        <symbol id="rec" viewBox="0 0 32 32" fill="none">
            <rect x="4" y="4" width="24" height="24" rx="12" stroke="currentColor" stroke-width="3"/>
            <rect x="10" y="10" width="12" height="12" rx="6" fill="currentColor"/>
        </symbol>
        <symbol id="stop-rec" viewBox="0 0 32 32" fill="none">
            <rect x="4" y="4" width="24" height="24" rx="12" stroke="currentColor" stroke-width="3"/>
            <rect x="10" y="10" width="12" height="12" rx="2" fill="currentColor"/>
        </symbol>
        <symbol id="folder" viewBox="0 0 22 18" fill="none">
            <path d="M19.25 3.37501H11.5053L9.06781 0.629069C8.89133 0.430603 8.67471 0.271891 8.43228 0.163444C8.18985 0.0549962 7.92714 -0.000712442 7.66156 6.87816e-06H2.75C2.25272 6.87816e-06 1.77581 0.197551 1.42417 0.549182C1.07254 0.900812 0.875 1.37773 0.875 1.87501V15.8081C0.875744 16.2898 1.0674 16.7515 1.40797 17.092C1.74854 17.4326 2.21024 17.6243 2.69188 17.625H19.3334C19.8084 17.6245 20.2638 17.4356 20.5997 17.0997C20.9356 16.7638 21.1245 16.3084 21.125 15.8334V5.25001C21.125 4.75273 20.9275 4.27581 20.5758 3.92418C20.2242 3.57255 19.7473 3.37501 19.25 3.37501ZM3.125 2.25001H7.49469L8.495 3.37501H3.125V2.25001ZM18.875 15.375H3.125V5.62501H18.875V15.375Z" fill="currentColor"/>
        </symbol>
        <symbol id="trash" viewBox="0 0 16 18" fill="none">
            <path d="M14.875 3.25H12.0625V2.3125C12.0625 1.73234 11.832 1.17594 11.4218 0.765704C11.0116 0.355468 10.4552 0.125 9.875 0.125H6.125C5.54484 0.125 4.98844 0.355468 4.5782 0.765704C4.16797 1.17594 3.9375 1.73234 3.9375 2.3125V3.25H1.125C0.87636 3.25 0.637903 3.34877 0.462087 3.52459C0.286272 3.7004 0.1875 3.93886 0.1875 4.1875C0.1875 4.43614 0.286272 4.6746 0.462087 4.85041C0.637903 5.02623 0.87636 5.125 1.125 5.125H1.4375V15.75C1.4375 16.1644 1.60212 16.5618 1.89515 16.8549C2.18817 17.1479 2.5856 17.3125 3 17.3125H13C13.4144 17.3125 13.8118 17.1479 14.1049 16.8549C14.3979 16.5618 14.5625 16.1644 14.5625 15.75V5.125H14.875C15.1236 5.125 15.3621 5.02623 15.5379 4.85041C15.7137 4.6746 15.8125 4.43614 15.8125 4.1875C15.8125 3.93886 15.7137 3.7004 15.5379 3.52459C15.3621 3.34877 15.1236 3.25 14.875 3.25ZM5.8125 2.3125C5.8125 2.22962 5.84542 2.15013 5.90403 2.09153C5.96263 2.03292 6.04212 2 6.125 2H9.875C9.95788 2 10.0374 2.03292 10.096 2.09153C10.1546 2.15013 10.1875 2.22962 10.1875 2.3125V3.25H5.8125V2.3125ZM12.6875 15.4375H3.3125V5.125H12.6875V15.4375ZM7.0625 7.625V12.625C7.0625 12.8736 6.96373 13.1121 6.78791 13.2879C6.6121 13.4637 6.37364 13.5625 6.125 13.5625C5.87636 13.5625 5.6379 13.4637 5.46209 13.2879C5.28627 13.1121 5.1875 12.8736 5.1875 12.625V7.625C5.1875 7.37636 5.28627 7.1379 5.46209 6.96209C5.6379 6.78627 5.87636 6.6875 6.125 6.6875C6.37364 6.6875 6.6121 6.78627 6.78791 6.96209C6.96373 7.1379 7.0625 7.37636 7.0625 7.625ZM10.8125 7.625V12.625C10.8125 12.8736 10.7137 13.1121 10.5379 13.2879C10.3621 13.4637 10.1236 13.5625 9.875 13.5625C9.62636 13.5625 9.3879 13.4637 9.21209 13.2879C9.03627 13.1121 8.9375 12.8736 8.9375 12.625V7.625C8.9375 7.37636 9.03627 7.1379 9.21209 6.96209C9.3879 6.78627 9.62636 6.6875 9.875 6.6875C10.1236 6.6875 10.3621 6.78627 10.5379 6.96209C10.7137 7.1379 10.8125 7.37636 10.8125 7.625Z" fill="currentColor"/>
        </symbol>
            
    </defs>
</svg>